<mxfile host="Electron" modified="2024-05-09T12:06:46.100Z" agent="Mozilla/5.0 (Windows NT 10.0; Win64; x64) AppleWebKit/537.36 (KHTML, like Gecko) draw.io/24.2.5 Chrome/120.0.6099.109 Electron/28.1.0 Safari/537.36" etag="4k6jHXoQiI6M_ZAhHonu" version="24.2.5" type="device">
  <diagram name="PÃ¡gina-1" id="GBnDSWIMgBguWS17cVUB">
    <mxGraphModel dx="1195" dy="697" grid="1" gridSize="10" guides="1" tooltips="1" connect="1" arrows="1" fold="1" page="1" pageScale="1" pageWidth="827" pageHeight="1169" math="0" shadow="0">
      <root>
        <mxCell id="0" />
        <mxCell id="1" parent="0" />
        <mxCell id="giKLwABNxpkBtgjpMrBd-41" value="" style="group;rotation=-135;" vertex="1" connectable="0" parent="1">
          <mxGeometry x="284" y="219.99577136594007" width="110" height="100.00422863405993" as="geometry" />
        </mxCell>
        <mxCell id="giKLwABNxpkBtgjpMrBd-42" value="" style="rounded=0;whiteSpace=wrap;html=1;" vertex="1" parent="giKLwABNxpkBtgjpMrBd-41">
          <mxGeometry x="-7" y="-5" width="110" height="110" as="geometry" />
        </mxCell>
        <mxCell id="giKLwABNxpkBtgjpMrBd-43" value="" style="ellipse;whiteSpace=wrap;html=1;aspect=fixed;rotation=-135;" vertex="1" parent="giKLwABNxpkBtgjpMrBd-41">
          <mxGeometry x="9" y="10" width="80" height="80" as="geometry" />
        </mxCell>
        <mxCell id="giKLwABNxpkBtgjpMrBd-44" value="" style="group;rotation=-165;" vertex="1" connectable="0" parent="giKLwABNxpkBtgjpMrBd-41">
          <mxGeometry x="25" y="79" width="24" height="18" as="geometry" />
        </mxCell>
        <mxCell id="giKLwABNxpkBtgjpMrBd-45" value="" style="triangle;whiteSpace=wrap;html=1;rotation=-165;" vertex="1" parent="giKLwABNxpkBtgjpMrBd-44">
          <mxGeometry x="6" y="1" width="18" height="18" as="geometry" />
        </mxCell>
        <mxCell id="giKLwABNxpkBtgjpMrBd-46" value="" style="ellipse;whiteSpace=wrap;html=1;aspect=fixed;rotation=-165;" vertex="1" parent="giKLwABNxpkBtgjpMrBd-44">
          <mxGeometry x="1" y="5" width="6" height="6" as="geometry" />
        </mxCell>
        <mxCell id="giKLwABNxpkBtgjpMrBd-47" value="" style="triangle;whiteSpace=wrap;html=1;rotation=-45;" vertex="1" parent="giKLwABNxpkBtgjpMrBd-41">
          <mxGeometry x="8" y="17" width="18" height="18" as="geometry" />
        </mxCell>
        <mxCell id="giKLwABNxpkBtgjpMrBd-48" value="" style="ellipse;whiteSpace=wrap;html=1;aspect=fixed;rotation=-186;" vertex="1" parent="giKLwABNxpkBtgjpMrBd-41">
          <mxGeometry x="23" y="14" width="6" height="6" as="geometry" />
        </mxCell>
        <mxCell id="giKLwABNxpkBtgjpMrBd-49" value="" style="group;rotation=-285;" vertex="1" connectable="0" parent="giKLwABNxpkBtgjpMrBd-41">
          <mxGeometry x="74" y="31" width="24" height="18" as="geometry" />
        </mxCell>
        <mxCell id="giKLwABNxpkBtgjpMrBd-50" value="" style="triangle;whiteSpace=wrap;html=1;rotation=-285;" vertex="1" parent="giKLwABNxpkBtgjpMrBd-49">
          <mxGeometry x="3" y="-3" width="18" height="18" as="geometry" />
        </mxCell>
        <mxCell id="giKLwABNxpkBtgjpMrBd-51" value="" style="ellipse;whiteSpace=wrap;html=1;aspect=fixed;rotation=-285;" vertex="1" parent="giKLwABNxpkBtgjpMrBd-49">
          <mxGeometry x="12" y="15" width="6" height="6" as="geometry" />
        </mxCell>
        <mxCell id="giKLwABNxpkBtgjpMrBd-52" value="VCO1 (P)" style="text;html=1;align=center;verticalAlign=middle;whiteSpace=wrap;rounded=0;" vertex="1" parent="giKLwABNxpkBtgjpMrBd-41">
          <mxGeometry x="19" y="-29.995771365940072" width="60" height="30" as="geometry" />
        </mxCell>
        <mxCell id="giKLwABNxpkBtgjpMrBd-53" value="" style="endArrow=classic;html=1;rounded=0;" edge="1" parent="1">
          <mxGeometry width="50" height="50" relative="1" as="geometry">
            <mxPoint x="388" y="269.65" as="sourcePoint" />
            <mxPoint x="458" y="269.65" as="targetPoint" />
          </mxGeometry>
        </mxCell>
        <mxCell id="giKLwABNxpkBtgjpMrBd-54" value="Gray Counter" style="rounded=0;whiteSpace=wrap;html=1;" vertex="1" parent="1">
          <mxGeometry x="460" y="245" width="90" height="50" as="geometry" />
        </mxCell>
        <mxCell id="giKLwABNxpkBtgjpMrBd-55" value="" style="endArrow=classic;html=1;rounded=0;exitX=1;exitY=0.5;exitDx=0;exitDy=0;" edge="1" parent="1">
          <mxGeometry width="50" height="50" relative="1" as="geometry">
            <mxPoint x="549.9999999999998" y="269.6600000000001" as="sourcePoint" />
            <mxPoint x="590" y="269.65999999999997" as="targetPoint" />
          </mxGeometry>
        </mxCell>
        <mxCell id="giKLwABNxpkBtgjpMrBd-57" value="Sample" style="rounded=0;whiteSpace=wrap;html=1;" vertex="1" parent="1">
          <mxGeometry x="590" y="245" width="90" height="50" as="geometry" />
        </mxCell>
        <mxCell id="giKLwABNxpkBtgjpMrBd-58" value="Noise Shaper" style="rounded=0;whiteSpace=wrap;html=1;" vertex="1" parent="1">
          <mxGeometry x="985" y="313" width="90" height="50" as="geometry" />
        </mxCell>
        <mxCell id="giKLwABNxpkBtgjpMrBd-59" value="-" style="strokeWidth=2;html=1;shape=mxgraph.flowchart.start_2;whiteSpace=wrap;" vertex="1" parent="1">
          <mxGeometry x="827" y="323" width="30" height="30" as="geometry" />
        </mxCell>
        <mxCell id="giKLwABNxpkBtgjpMrBd-60" value="" style="rounded=0;whiteSpace=wrap;html=1;" vertex="1" parent="1">
          <mxGeometry x="277" y="354.9957713659401" width="110" height="110" as="geometry" />
        </mxCell>
        <mxCell id="giKLwABNxpkBtgjpMrBd-61" value="" style="ellipse;whiteSpace=wrap;html=1;aspect=fixed;rotation=-135;" vertex="1" parent="1">
          <mxGeometry x="293" y="369.9957713659401" width="80" height="80" as="geometry" />
        </mxCell>
        <mxCell id="giKLwABNxpkBtgjpMrBd-62" value="" style="group;rotation=-165;" vertex="1" connectable="0" parent="1">
          <mxGeometry x="309" y="438.9957713659401" width="24" height="18" as="geometry" />
        </mxCell>
        <mxCell id="giKLwABNxpkBtgjpMrBd-63" value="" style="triangle;whiteSpace=wrap;html=1;rotation=-165;" vertex="1" parent="giKLwABNxpkBtgjpMrBd-62">
          <mxGeometry x="6" y="1" width="18" height="18" as="geometry" />
        </mxCell>
        <mxCell id="giKLwABNxpkBtgjpMrBd-64" value="" style="ellipse;whiteSpace=wrap;html=1;aspect=fixed;rotation=-165;" vertex="1" parent="giKLwABNxpkBtgjpMrBd-62">
          <mxGeometry x="1" y="5" width="6" height="6" as="geometry" />
        </mxCell>
        <mxCell id="giKLwABNxpkBtgjpMrBd-65" value="" style="triangle;whiteSpace=wrap;html=1;rotation=-45;" vertex="1" parent="1">
          <mxGeometry x="292" y="376.9957713659401" width="18" height="18" as="geometry" />
        </mxCell>
        <mxCell id="giKLwABNxpkBtgjpMrBd-66" value="" style="ellipse;whiteSpace=wrap;html=1;aspect=fixed;rotation=-186;" vertex="1" parent="1">
          <mxGeometry x="307" y="373.9957713659401" width="6" height="6" as="geometry" />
        </mxCell>
        <mxCell id="giKLwABNxpkBtgjpMrBd-67" value="" style="group;rotation=-285;" vertex="1" connectable="0" parent="1">
          <mxGeometry x="358" y="390.9957713659401" width="24" height="18" as="geometry" />
        </mxCell>
        <mxCell id="giKLwABNxpkBtgjpMrBd-68" value="" style="triangle;whiteSpace=wrap;html=1;rotation=-285;" vertex="1" parent="giKLwABNxpkBtgjpMrBd-67">
          <mxGeometry x="3" y="-3" width="18" height="18" as="geometry" />
        </mxCell>
        <mxCell id="giKLwABNxpkBtgjpMrBd-69" value="" style="ellipse;whiteSpace=wrap;html=1;aspect=fixed;rotation=-285;" vertex="1" parent="giKLwABNxpkBtgjpMrBd-67">
          <mxGeometry x="12" y="15" width="6" height="6" as="geometry" />
        </mxCell>
        <mxCell id="giKLwABNxpkBtgjpMrBd-70" value="VCO1 (N)" style="text;html=1;align=center;verticalAlign=middle;whiteSpace=wrap;rounded=0;" vertex="1" parent="1">
          <mxGeometry x="303" y="330" width="60" height="30" as="geometry" />
        </mxCell>
        <mxCell id="giKLwABNxpkBtgjpMrBd-71" value="" style="endArrow=classic;html=1;rounded=0;" edge="1" parent="1">
          <mxGeometry width="50" height="50" relative="1" as="geometry">
            <mxPoint x="388" y="409.65" as="sourcePoint" />
            <mxPoint x="458" y="409.65" as="targetPoint" />
          </mxGeometry>
        </mxCell>
        <mxCell id="giKLwABNxpkBtgjpMrBd-72" value="Gray Counter" style="rounded=0;whiteSpace=wrap;html=1;" vertex="1" parent="1">
          <mxGeometry x="460" y="385" width="90" height="50" as="geometry" />
        </mxCell>
        <mxCell id="giKLwABNxpkBtgjpMrBd-73" value="" style="endArrow=classic;html=1;rounded=0;exitX=1;exitY=0.5;exitDx=0;exitDy=0;" edge="1" parent="1">
          <mxGeometry width="50" height="50" relative="1" as="geometry">
            <mxPoint x="549.9999999999998" y="409.6600000000001" as="sourcePoint" />
            <mxPoint x="590" y="409.65999999999997" as="targetPoint" />
          </mxGeometry>
        </mxCell>
        <mxCell id="giKLwABNxpkBtgjpMrBd-74" value="Sample" style="rounded=0;whiteSpace=wrap;html=1;" vertex="1" parent="1">
          <mxGeometry x="590" y="385" width="90" height="50" as="geometry" />
        </mxCell>
        <mxCell id="giKLwABNxpkBtgjpMrBd-76" value="" style="endArrow=classic;html=1;rounded=0;exitX=1;exitY=0.5;exitDx=0;exitDy=0;" edge="1" parent="1">
          <mxGeometry width="50" height="50" relative="1" as="geometry">
            <mxPoint x="856.9999999999998" y="337.6600000000001" as="sourcePoint" />
            <mxPoint x="897" y="337.65999999999997" as="targetPoint" />
          </mxGeometry>
        </mxCell>
        <mxCell id="giKLwABNxpkBtgjpMrBd-77" value="" style="endArrow=classic;html=1;rounded=0;" edge="1" parent="1">
          <mxGeometry width="50" height="50" relative="1" as="geometry">
            <mxPoint x="80" y="319" as="sourcePoint" />
            <mxPoint x="160" y="319" as="targetPoint" />
          </mxGeometry>
        </mxCell>
        <mxCell id="giKLwABNxpkBtgjpMrBd-78" value="" style="endArrow=classic;html=1;rounded=0;" edge="1" parent="1">
          <mxGeometry width="50" height="50" relative="1" as="geometry">
            <mxPoint x="80" y="358" as="sourcePoint" />
            <mxPoint x="160" y="358" as="targetPoint" />
          </mxGeometry>
        </mxCell>
        <mxCell id="giKLwABNxpkBtgjpMrBd-79" value="" style="triangle;whiteSpace=wrap;html=1;" vertex="1" parent="1">
          <mxGeometry x="160" y="299" width="70" height="80" as="geometry" />
        </mxCell>
        <mxCell id="giKLwABNxpkBtgjpMrBd-80" value="gm" style="text;html=1;align=center;verticalAlign=middle;whiteSpace=wrap;rounded=0;" vertex="1" parent="1">
          <mxGeometry x="154" y="323" width="60" height="30" as="geometry" />
        </mxCell>
        <mxCell id="giKLwABNxpkBtgjpMrBd-81" value="" style="endArrow=classic;html=1;rounded=0;exitX=0.5;exitY=0;exitDx=0;exitDy=0;entryX=0;entryY=0.5;entryDx=0;entryDy=0;" edge="1" parent="1" source="giKLwABNxpkBtgjpMrBd-79" target="giKLwABNxpkBtgjpMrBd-42">
          <mxGeometry width="50" height="50" relative="1" as="geometry">
            <mxPoint x="420" y="490" as="sourcePoint" />
            <mxPoint x="470" y="440" as="targetPoint" />
            <Array as="points">
              <mxPoint x="230" y="319" />
              <mxPoint x="230" y="270" />
            </Array>
          </mxGeometry>
        </mxCell>
        <mxCell id="giKLwABNxpkBtgjpMrBd-82" value="" style="endArrow=classic;html=1;rounded=0;exitX=0.5;exitY=1;exitDx=0;exitDy=0;entryX=0;entryY=0.5;entryDx=0;entryDy=0;" edge="1" parent="1" source="giKLwABNxpkBtgjpMrBd-79" target="giKLwABNxpkBtgjpMrBd-60">
          <mxGeometry width="50" height="50" relative="1" as="geometry">
            <mxPoint x="420" y="490" as="sourcePoint" />
            <mxPoint x="470" y="440" as="targetPoint" />
            <Array as="points">
              <mxPoint x="230" y="360" />
              <mxPoint x="230" y="410" />
            </Array>
          </mxGeometry>
        </mxCell>
        <mxCell id="giKLwABNxpkBtgjpMrBd-83" value="inP" style="text;html=1;align=center;verticalAlign=middle;whiteSpace=wrap;rounded=0;" vertex="1" parent="1">
          <mxGeometry x="60" y="293" width="60" height="30" as="geometry" />
        </mxCell>
        <mxCell id="giKLwABNxpkBtgjpMrBd-84" value="inN" style="text;html=1;align=center;verticalAlign=middle;whiteSpace=wrap;rounded=0;" vertex="1" parent="1">
          <mxGeometry x="60" y="355" width="60" height="30" as="geometry" />
        </mxCell>
        <mxCell id="giKLwABNxpkBtgjpMrBd-85" value="" style="triangle;whiteSpace=wrap;html=1;" vertex="1" parent="1">
          <mxGeometry x="897" y="314.5" width="47" height="47" as="geometry" />
        </mxCell>
        <mxCell id="giKLwABNxpkBtgjpMrBd-86" value="" style="endArrow=classic;html=1;rounded=0;exitX=1;exitY=0.5;exitDx=0;exitDy=0;" edge="1" parent="1">
          <mxGeometry width="50" height="50" relative="1" as="geometry">
            <mxPoint x="943.9999999999998" y="337.7600000000001" as="sourcePoint" />
            <mxPoint x="984" y="337.76" as="targetPoint" />
          </mxGeometry>
        </mxCell>
        <mxCell id="giKLwABNxpkBtgjpMrBd-87" value="G" style="text;html=1;align=center;verticalAlign=middle;whiteSpace=wrap;rounded=0;" vertex="1" parent="1">
          <mxGeometry x="906" y="326.5" width="13" height="23" as="geometry" />
        </mxCell>
        <mxCell id="giKLwABNxpkBtgjpMrBd-88" value="" style="endArrow=classic;html=1;rounded=0;exitX=1;exitY=0.5;exitDx=0;exitDy=0;" edge="1" parent="1">
          <mxGeometry width="50" height="50" relative="1" as="geometry">
            <mxPoint x="679.9999999999998" y="269.6600000000001" as="sourcePoint" />
            <mxPoint x="720" y="269.65999999999997" as="targetPoint" />
          </mxGeometry>
        </mxCell>
        <mxCell id="giKLwABNxpkBtgjpMrBd-89" value="Gray to bin" style="rounded=0;whiteSpace=wrap;html=1;" vertex="1" parent="1">
          <mxGeometry x="720" y="245" width="90" height="50" as="geometry" />
        </mxCell>
        <mxCell id="giKLwABNxpkBtgjpMrBd-90" value="" style="endArrow=classic;html=1;rounded=0;exitX=1;exitY=0.5;exitDx=0;exitDy=0;" edge="1" parent="1">
          <mxGeometry width="50" height="50" relative="1" as="geometry">
            <mxPoint x="679.9999999999998" y="409.6600000000001" as="sourcePoint" />
            <mxPoint x="720" y="409.65999999999997" as="targetPoint" />
          </mxGeometry>
        </mxCell>
        <mxCell id="giKLwABNxpkBtgjpMrBd-91" value="Gray to bin" style="rounded=0;whiteSpace=wrap;html=1;" vertex="1" parent="1">
          <mxGeometry x="720" y="385" width="90" height="50" as="geometry" />
        </mxCell>
        <mxCell id="giKLwABNxpkBtgjpMrBd-92" value="" style="endArrow=classic;html=1;rounded=0;exitX=1;exitY=0.5;exitDx=0;exitDy=0;entryX=0.5;entryY=0;entryDx=0;entryDy=0;entryPerimeter=0;" edge="1" parent="1" source="giKLwABNxpkBtgjpMrBd-89" target="giKLwABNxpkBtgjpMrBd-59">
          <mxGeometry width="50" height="50" relative="1" as="geometry">
            <mxPoint x="827" y="270" as="sourcePoint" />
            <mxPoint x="877" y="220" as="targetPoint" />
            <Array as="points">
              <mxPoint x="842" y="270" />
            </Array>
          </mxGeometry>
        </mxCell>
        <mxCell id="giKLwABNxpkBtgjpMrBd-93" value="" style="endArrow=classic;html=1;rounded=0;exitX=1;exitY=0.5;exitDx=0;exitDy=0;entryX=0.5;entryY=1;entryDx=0;entryDy=0;entryPerimeter=0;" edge="1" parent="1" target="giKLwABNxpkBtgjpMrBd-59">
          <mxGeometry width="50" height="50" relative="1" as="geometry">
            <mxPoint x="810" y="412" as="sourcePoint" />
            <mxPoint x="842" y="465" as="targetPoint" />
            <Array as="points">
              <mxPoint x="842" y="412" />
            </Array>
          </mxGeometry>
        </mxCell>
        <mxCell id="giKLwABNxpkBtgjpMrBd-94" value="" style="endArrow=classic;html=1;rounded=0;" edge="1" parent="1">
          <mxGeometry width="50" height="50" relative="1" as="geometry">
            <mxPoint x="1075" y="337.58" as="sourcePoint" />
            <mxPoint x="1130" y="337.58" as="targetPoint" />
          </mxGeometry>
        </mxCell>
      </root>
    </mxGraphModel>
  </diagram>
</mxfile>
